<svg id="svg" version="1.1" xmlns="http://www.w3.org/2000/svg" style="display: block;" viewBox="0 0 225 225"><path d="M0 0 C74.25 0 148.5 0 225 0 C225 74.25 225 148.5 225 225 C150.75 225 76.5 225 0 225 C0 150.75 0 76.5 0 0 Z " transform="translate(0,0)" style="fill: #FEFEFE;"/><path d="M0 0 C9.25628159 3.71469196 12.06033991 9.77726826 15.84240723 18.47372437 C18.29035735 24.22017402 20.65886576 29.99940645 23.03125 35.77734375 C23.79439301 37.62799932 24.5579062 39.47850228 25.32177734 41.32885742 C26.84253701 45.01404011 28.36142166 48.69998531 29.87841797 52.38671875 C32.14108916 57.88523377 34.41126871 63.38060338 36.6862793 68.87402344 C37.62189888 71.13638893 38.55437343 73.40005772 39.48364258 75.66503906 C41.92430243 81.60011735 44.41132388 87.50813667 46.97836304 93.38948059 C48.39155868 96.63334134 49.78827319 99.88419006 51.184021 103.1355896 C51.8634699 104.70612133 52.55062064 106.27334786 53.24615479 107.83682251 C57.68959215 117.8317779 61.29641806 126.75444329 57.96875 137.77734375 C54.42159235 142.54383684 50.06659056 147.49839355 43.96875 148.46484375 C38.30756103 149.16914915 33.28722989 149.18271326 28.21875 146.33984375 C17.47170263 137.76276344 12.88619588 118.94392458 7.84375 106.58984375 C7.00480856 104.54556571 6.16544871 102.50145934 5.32568359 100.45751953 C2.86521011 94.46328326 0.41492584 88.46492717 -2.03125 82.46484375 C-2.38131104 81.60624756 -2.73137207 80.74765137 -3.09204102 79.86303711 C-5.71285519 73.43244781 -8.33112669 67.00083041 -10.93408203 60.56298828 C-16.24633338 47.40581324 -16.24633338 47.40581324 -21.83203125 34.36328125 C-27.7244768 20.62946759 -27.7244768 20.62946759 -26.03125 13.46484375 C-21.3473676 2.51674463 -11.69105246 -3.08014267 0 0 Z " transform="translate(96.03125,38.53515625)" style="fill: #FD077E;"/><path d="M0 0 C0.33 0 0.66 0 1 0 C1.14260254 0.88594849 1.14260254 0.88594849 1.28808594 1.78979492 C2.51273309 8.65867198 4.64023221 14.85621784 7.25 21.3125 C7.65041504 22.32143311 8.05083008 23.33036621 8.46337891 24.36987305 C10.99543399 30.69086243 13.66846584 36.89444182 16.7109375 42.98828125 C17.34902344 44.47908203 17.34902344 44.47908203 18 46 C18.35626465 46.63607178 18.7125293 47.27214355 19.07958984 47.92749023 C21.4777324 53.22694181 21.03468235 56.94745494 19.10725403 62.24160767 C17.46166617 66.3521529 15.68058271 70.39523789 13.875 74.4375 C13.12421949 76.17506728 12.37643668 77.91393276 11.6315918 79.65405273 C10.13901815 83.13510535 8.63282146 86.6097738 7.11767578 90.08105469 C5.21206489 94.47300155 3.40456863 98.89648111 1.65234375 103.3515625 C1.40474304 103.97811234 1.15714233 104.60466217 0.90203857 105.25019836 C-0.22803379 108.11361535 -1.34905496 110.98021726 -2.45947266 113.85131836 C-5.56065641 121.62056678 -8.75248452 127.74898836 -16.6953125 131.30078125 C-21.91756395 132.88515923 -27.23720894 133.12541072 -32.33984375 131.046875 C-38.17647502 127.61228379 -41.74451986 123.40284402 -44 117 C-45.79367554 107.09791396 -41.46171771 98.67369594 -37.5625 89.875 C-36.88412236 88.30359639 -36.20798519 86.73122393 -35.53393555 85.15795898 C-34.10484545 81.82554289 -32.66722154 78.49699286 -31.22460938 75.17041016 C-27.85661824 67.37523568 -24.62813408 59.52208964 -21.38983154 51.6723938 C-19.96516313 48.22105769 -18.5352361 44.77191198 -17.10519409 41.32279968 C-11.39562592 27.5517817 -5.69679301 13.77630689 0 0 Z " transform="translate(69,55)" style="fill: #7BAEFE;"/><path d="M0 0 C5.16466141 2.93676825 8.46954921 6.56384665 11.1875 11.8125 C13.24946095 22.70492748 8.97111895 31.84136571 4.75 41.5625 C4.07231262 43.17004085 3.39690883 44.77854603 2.72363281 46.38793945 C1.29918 49.78451466 -0.13755334 53.17550774 -1.58349609 56.56298828 C-3.83030021 61.83728555 -6.0245196 67.13242223 -8.20703125 72.43359375 C-12.06797689 81.80695325 -15.95651997 91.16849997 -19.85894775 100.5246582 C-20.77378675 102.71961596 -21.68679025 104.91532686 -22.59912109 107.11132812 C-24.14314179 110.82686287 -25.69555929 114.53881237 -27.25 118.25 C-27.6924707 119.31565186 -28.13494141 120.38130371 -28.59082031 121.47924805 C-28.99268555 122.43355713 -29.39455078 123.38786621 -29.80859375 124.37109375 C-30.15075928 125.18892334 -30.4929248 126.00675293 -30.84545898 126.84936523 C-31.8125 128.8125 -31.8125 128.8125 -33.8125 130.8125 C-33.895 129.53673096 -33.9775 128.26096191 -34.0625 126.9465332 C-34.68573796 121.40210927 -36.5911527 116.7487377 -38.8125 111.66796875 C-39.20824219 110.73576004 -39.60398438 109.80355133 -40.01171875 108.84309387 C-41.26750282 105.89048791 -42.53925124 102.9451112 -43.8125 100 C-45.08257121 97.03577888 -46.34926988 94.07015779 -47.61328125 91.10334778 C-48.39812933 89.26404983 -49.18703613 87.42647719 -49.98046875 85.59086609 C-50.51607422 84.34355461 -50.51607422 84.34355461 -51.0625 83.07104492 C-51.37703125 82.34318283 -51.6915625 81.61532074 -52.015625 80.86540222 C-53.83484643 76.1787403 -53.80880388 74.0791424 -51.7928009 69.30639648 C-51.47574692 68.58782471 -51.15869293 67.86925293 -50.83203125 67.12890625 C-50.5079277 66.36900391 -50.18382416 65.60910156 -49.84989929 64.82617188 C-48.78584395 62.33759914 -47.70600393 59.85625222 -46.625 57.375 C-45.13833366 53.92862591 -43.65729583 50.47984114 -42.17578125 47.03125 C-41.80321198 46.16746231 -41.4306427 45.30367462 -41.04678345 44.41371155 C-38.72333486 39.00788478 -36.49700072 33.57397701 -34.35546875 28.09375 C-33.83187317 26.76870048 -33.308036 25.44374639 -32.78393555 24.11889648 C-31.82405806 21.69059895 -30.89178055 19.25704015 -29.97192383 16.81274414 C-24.5780094 3.24738467 -14.79212071 -4.60738186 0 0 Z " transform="translate(188.8125,39.1875)" style="fill: #7BAFFE;"/><path d="M0 0 C3.32294306 3.83401521 5.04920002 8.31971754 7.01171875 12.9375 C7.57135063 14.25137695 7.57135063 14.25137695 8.14228821 15.59179688 C8.92805795 17.44633168 9.71038431 19.30232871 10.48950195 21.15966797 C11.67506281 23.97051269 12.88887867 26.76802877 14.10351562 29.56640625 C22.39451634 49.06816462 22.39451634 49.06816462 19 60.3125 C15.45284235 65.07899309 11.09784056 70.0335498 5 71 C-2.21724697 71.89789372 -7.28611951 71.26437522 -13.1171875 66.75 C-17.75824878 62.43631649 -19.23332193 58.87689686 -19.6484375 52.67578125 C-19.52489055 41.83472571 -14.27538885 32.03925908 -10.0625 22.25 C-9.20171953 20.19877846 -8.34297723 18.14670035 -7.48632812 16.09375 C-5.92488518 12.37271645 -4.35839201 8.65414114 -2.76586914 4.94628906 C-2.28954796 3.83595306 -2.28954796 3.83595306 -1.80360413 2.70318604 C-1 1 -1 1 0 0 Z " transform="translate(135,116)" style="fill: #303167;"/><path d="M0 0 C6.42404362 2.57807014 10.09334777 6.09847433 13.26953125 12.07421875 C15.05730152 18.1865953 14.01355787 23.36916416 11.71875 29.15234375 C11.46714111 29.79518311 11.21553223 30.43802246 10.95629883 31.1003418 C9.98110411 33.56397702 8.97697481 36.01452865 7.96875 38.46484375 C7.49163574 39.62661133 7.01452148 40.78837891 6.52294922 41.98535156 C4.36671216 47.22823486 2.20423623 52.468451 0.02050781 57.69995117 C-0.48770508 58.91787354 -0.99591797 60.1357959 -1.51953125 61.390625 C-2.20849487 63.03671753 -2.20849487 63.03671753 -2.91137695 64.71606445 C-3.6819655 66.60750907 -4.3853886 68.52725955 -5.03125 70.46484375 C-5.69125 70.46484375 -6.35125 70.46484375 -7.03125 70.46484375 C-7.3554895 69.65031738 -7.3554895 69.65031738 -7.6862793 68.81933594 C-12.59664738 56.45548773 -12.59664738 56.45548773 -17.65625 44.15234375 C-18.03394531 43.24097656 -18.41164063 42.32960937 -18.80078125 41.390625 C-19.73538385 39.1683477 -20.69395787 36.96268537 -21.66796875 34.7578125 C-27.74826737 20.73013366 -27.74826737 20.73013366 -26.03125 13.46484375 C-21.3473676 2.51674463 -11.69105246 -3.08014267 0 0 Z " transform="translate(96.03125,38.53515625)" style="fill: #303167;"/></svg>