<svg id="svg" version="1.1" xmlns="http://www.w3.org/2000/svg" style="display: block;" viewBox="0 0 225 225"><path d="M0 0 C74.25 0 148.5 0 225 0 C225 74.25 225 148.5 225 225 C150.75 225 76.5 225 0 225 C0 150.75 0 76.5 0 0 Z " transform="translate(0,0)" style="fill: #FEFEFE;"/><path d="M0 0 C4.49600965 0.41852442 7.62953526 1.64961922 11.484375 3.94921875 C13.01191406 4.85124023 13.01191406 4.85124023 14.5703125 5.77148438 C16.14425781 6.71991211 16.14425781 6.71991211 17.75 7.6875 C18.78382812 8.30044922 19.81765625 8.91339844 20.8828125 9.54492188 C23.92800869 11.35324682 26.965045 13.1745492 30 15 C31.92183454 16.15241122 33.84370629 17.3047604 35.765625 18.45703125 C37.17717032 19.30454264 38.58866434 20.15213951 40 21 C39.70239258 22.85839844 39.70239258 22.85839844 39 25 C36.36801377 26.84143789 33.78633423 28.41929624 31 30 C28.90204596 31.24428971 26.80441388 32.48912237 24.70703125 33.734375 C22.99292107 34.73435446 21.27878618 35.73429642 19.56274414 36.73095703 C18.38878555 37.41446981 17.21659869 38.10103406 16.04614258 38.79052734 C14.33296571 39.79951202 12.61381249 40.79832753 10.89453125 41.796875 C9.88237549 42.38823242 8.87021973 42.97958984 7.82739258 43.58886719 C5.13834298 44.93095394 2.97873342 45.67783144 0 46 C-1.54501451 44.45498549 -1.12719131 43.0133978 -1.12939453 40.86328125 C-1.13254669 39.98567139 -1.13569885 39.10806152 -1.13894653 38.20385742 C-1.1369223 37.24970947 -1.13489807 36.29556152 -1.1328125 35.3125 C-1.13376923 34.33966064 -1.13472595 33.36682129 -1.13571167 32.36450195 C-1.13639358 30.303222 -1.13453853 28.24193992 -1.13037109 26.18066406 C-1.125023 23.01362312 -1.13031572 19.846724 -1.13671875 16.6796875 C-1.13605797 14.68229135 -1.13477681 12.68489529 -1.1328125 10.6875 C-1.13483673 9.73335205 -1.13686096 8.7792041 -1.13894653 7.79614258 C-1.13579437 6.91853271 -1.13264221 6.04092285 -1.12939453 5.13671875 C-1.12859894 4.36030029 -1.12780334 3.58388184 -1.12698364 2.78393555 C-1 1 -1 1 0 0 Z " transform="translate(53,90)" style="fill: #7D58A5;"/><path d="M0 0 C4.07954527 0.467354 7.08905015 1.94811827 10.640625 3.94921875 C11.71183594 4.55056641 12.78304687 5.15191406 13.88671875 5.77148438 C14.99660156 6.40376953 16.10648438 7.03605469 17.25 7.6875 C18.34441406 8.30044922 19.43882813 8.91339844 20.56640625 9.54492188 C25.5122514 12.33769551 30.42660565 15.18171479 35.234375 18.20703125 C36.29736816 18.87375854 36.29736816 18.87375854 37.38183594 19.55395508 C39.31569454 21.28211508 39.63344542 22.47165258 40 25 C38.88882813 25.65226562 37.77765625 26.30453125 36.6328125 26.9765625 C35.13014243 27.85926282 33.627543 28.74208339 32.125 29.625 C31.34576172 30.08285889 30.56652344 30.54071777 29.76367188 31.01245117 C25.6627243 33.42469808 21.57126737 35.85035259 17.5 38.3125 C16.74332031 38.76367188 15.98664063 39.21484375 15.20703125 39.6796875 C13.65438077 40.60852973 12.11083836 41.5526834 10.57421875 42.5078125 C9.78660156 42.97960937 8.99898437 43.45140625 8.1875 43.9375 C7.50042969 44.35902344 6.81335937 44.78054687 6.10546875 45.21484375 C3.40415672 46.22219759 1.7623085 45.64039087 -1 45 C-1.02527124 38.75204325 -1.04283344 32.50409959 -1.05493164 26.25610352 C-1.05997298 24.12881986 -1.06680591 22.00153969 -1.07543945 19.87426758 C-1.08751379 16.82372174 -1.09323014 13.77322155 -1.09765625 10.72265625 C-1.10281754 9.76537125 -1.10797882 8.80808624 -1.11329651 7.8217926 C-1.11337204 6.94095505 -1.11344757 6.06011749 -1.11352539 5.15258789 C-1.115746 4.37315323 -1.11796661 3.59371857 -1.12025452 2.79066467 C-1 1 -1 1 0 0 Z " transform="translate(53,140)" style="fill: #EE609A;"/><path d="M0 0 C5.26301313 0.3276584 9.46756172 3.36656666 13.875 6 C15.12289307 6.73778687 15.12289307 6.73778687 16.39599609 7.49047852 C18.10216405 8.50026801 19.80675541 9.51272606 21.50976562 10.52783203 C23.84222525 11.90672728 26.18974424 13.25368556 28.546875 14.58984375 C29.90639399 15.37214565 31.26577702 16.15468391 32.625 16.9375 C33.25776855 17.29005859 33.89053711 17.64261719 34.54248047 18.00585938 C38.79875185 20.49512964 38.79875185 20.49512964 39.8984375 23.25390625 C39.94871094 24.11822266 39.94871094 24.11822266 40 25 C20.06417895 37.31146316 20.06417895 37.31146316 11.25 42.3125 C9.95835938 43.04919922 9.95835938 43.04919922 8.640625 43.80078125 C5.73004406 45.12259833 3.17487514 45.68704802 0 46 C-1.54501451 44.45498549 -1.12719131 43.0133978 -1.12939453 40.86328125 C-1.13254669 39.98567139 -1.13569885 39.10806152 -1.13894653 38.20385742 C-1.1369223 37.24970947 -1.13489807 36.29556152 -1.1328125 35.3125 C-1.13376923 34.33966064 -1.13472595 33.36682129 -1.13571167 32.36450195 C-1.13639358 30.303222 -1.13453853 28.24193992 -1.13037109 26.18066406 C-1.125023 23.01362312 -1.13031572 19.846724 -1.13671875 16.6796875 C-1.13605797 14.68229135 -1.13477681 12.68489529 -1.1328125 10.6875 C-1.13483673 9.73335205 -1.13686096 8.7792041 -1.13894653 7.79614258 C-1.13579437 6.91853271 -1.13264221 6.04092285 -1.12939453 5.13671875 C-1.12859894 4.36030029 -1.12780334 3.58388184 -1.12698364 2.78393555 C-1 1 -1 1 0 0 Z " transform="translate(53,39)" style="fill: #FCCB5A;"/><path d="M0 0 C4.33312664 0.42615846 7.47334247 1.53885333 11.23046875 3.6953125 C12.19919922 4.24703125 13.16792969 4.79875 14.16601562 5.3671875 C15.16310547 5.94726562 16.16019531 6.52734375 17.1875 7.125 C18.16525391 7.681875 19.14300781 8.23875 20.15039062 8.8125 C26.89407985 12.6813184 33.47509533 16.77381404 40 21 C39.63670275 23.52734343 39.37651648 24.69222209 37.36450195 26.33691406 C36.66284912 26.72588867 35.96119629 27.11486328 35.23828125 27.515625 C34.45517578 27.95849854 33.67207031 28.40137207 32.86523438 28.85766602 C31.60163086 29.54687134 31.60163086 29.54687134 30.3125 30.25 C29.45849609 30.72945068 28.60449219 31.20890137 27.72460938 31.70288086 C25.98545438 32.67863527 24.24342014 33.64927566 22.49853516 34.61474609 C18.98050126 36.56523704 15.49039323 38.56313479 12 40.5625 C10.3603125 41.49255859 10.3603125 41.49255859 8.6875 42.44140625 C6.75294097 43.56333801 4.86075348 44.75949768 3 46 C0.8125 45.625 0.8125 45.625 -1 45 C-1.02527124 38.75204325 -1.04283344 32.50409959 -1.05493164 26.25610352 C-1.05997298 24.12881986 -1.06680591 22.00153969 -1.07543945 19.87426758 C-1.08751379 16.82372174 -1.09323014 13.77322155 -1.09765625 10.72265625 C-1.10281754 9.76537125 -1.10797882 8.80808624 -1.11329651 7.8217926 C-1.11337204 6.94095505 -1.11344757 6.06011749 -1.11352539 5.15258789 C-1.115746 4.37315323 -1.11796661 3.59371857 -1.12025452 2.79066467 C-1 1 -1 1 0 0 Z " transform="translate(97,65)" style="fill: #62CBE8;"/><path d="M0 0 C3.73144865 0.47046246 6.56593688 1.64036361 9.84375 3.44140625 C10.75495605 3.93930664 11.66616211 4.43720703 12.60498047 4.95019531 C14.03801514 5.74828613 14.03801514 5.74828613 15.5 6.5625 C16.47727051 7.10100586 17.45454102 7.63951172 18.46142578 8.19433594 C25.7780615 12.25254599 32.95766258 16.48227411 40 21 C39.890625 22.75 39.890625 22.75 39 25 C36.93080131 26.51822862 34.97778675 27.75758599 32.75 29 C31.7767981 29.55953369 31.7767981 29.55953369 30.78393555 30.13037109 C29.33642652 30.96122075 27.88596003 31.78693196 26.43310547 32.60839844 C23.76016788 34.13717069 21.11649199 35.71053032 18.47265625 37.2890625 C16.5863679 38.40177161 14.69965234 39.51375685 12.8125 40.625 C11.9040332 41.17027344 10.99556641 41.71554688 10.05957031 42.27734375 C9.20073242 42.77621094 8.34189453 43.27507812 7.45703125 43.7890625 C6.69366455 44.23975098 5.93029785 44.69043945 5.14379883 45.15478516 C2.58821861 46.16234907 1.56810311 45.76082766 -1 45 C-1.02527124 38.75204325 -1.04283344 32.50409959 -1.05493164 26.25610352 C-1.05997298 24.12881986 -1.06680591 22.00153969 -1.07543945 19.87426758 C-1.08751379 16.82372174 -1.09323014 13.77322155 -1.09765625 10.72265625 C-1.10281754 9.76537125 -1.10797882 8.80808624 -1.11329651 7.8217926 C-1.11337204 6.94095505 -1.11344757 6.06011749 -1.11352539 5.15258789 C-1.115746 4.37315323 -1.11796661 3.59371857 -1.12025452 2.79066467 C-1 1 -1 1 0 0 Z " transform="translate(141,90)" style="fill: #ED3440;"/><path d="M0 0 C4.68639848 0.41734161 8.33684485 2.67182598 12.3125 5 C13.72902394 5.81405049 15.14569517 6.62784472 16.5625 7.44140625 C17.28953125 7.86180176 18.0165625 8.28219727 18.765625 8.71533203 C23.10674624 11.21128701 27.48665562 13.63873473 31.85864258 16.08007812 C34.64087289 17.64128363 37.34385785 19.22923857 40 21 C40 22.32 40 23.64 40 25 C39.04222656 25.53367188 38.08445313 26.06734375 37.09765625 26.6171875 C29.58366083 30.81682958 22.10714217 35.0730046 14.6875 39.4375 C13.96506104 39.86208496 13.24262207 40.28666992 12.49829102 40.72412109 C9.61482811 42.42609598 6.7876364 44.14157573 4 46 C2.68 46 1.36 46 0 46 C-1.15007105 43.69985789 -1.12670485 42.39884232 -1.12939453 39.84155273 C-1.13254669 38.98403915 -1.13569885 38.12652557 -1.13894653 37.24302673 C-1.1369223 36.31591385 -1.13489807 35.38880096 -1.1328125 34.43359375 C-1.13376923 33.48436539 -1.13472595 32.53513702 -1.13571167 31.55714417 C-1.1363928 29.548919 -1.13454319 27.54069165 -1.13037109 25.5324707 C-1.12501601 22.44672745 -1.1303214 19.36112937 -1.13671875 16.27539062 C-1.13605807 14.32812468 -1.13477713 12.38085882 -1.1328125 10.43359375 C-1.13483673 9.50445663 -1.13686096 8.57531952 -1.13894653 7.61802673 C-1.13579437 6.76366531 -1.13264221 5.90930389 -1.12939453 5.02905273 C-1.12820114 3.89559669 -1.12820114 3.89559669 -1.12698364 2.73924255 C-1 1 -1 1 0 0 Z " transform="translate(97,115)" style="fill: #DAE258;"/></svg>